# xmcd
#
# Track frame offsets:
#	150
#	13280
#	30847
#	45762
#	63632
#	83720
#	101454
#	118665
#	133187
#	152567
#	168192
#	185207
#	193597
#
# Disc length: 2779 seconds
#
# Revision: 1
# Processed by: cddbd v1.4PL0 Copyright (c) Steve Scherf et al.
# Submitted via: audiograbber 1.81.03
#
DISCID=a20ad90d
DTITLE=The Wailin' Walker Band - Buzzsax Boogie
DYEAR=1997
DGENRE=Blues
TTITLE0=Tryin' To Find My Baby
TTITLE1=I Feel Fine
TTITLE2=Boogie With Ya
TTITLE3=Buzzsaw
TTITLE4=While You're Down There
TTITLE5=Down The Highway
TTITLE6=Pretty Girls Everywhere
TTITLE7=Gasolilne Annie
TTITLE8=Dawn 'Til Tusk
TTITLE9=Outlaw Blues
TTITLE10=Let's Make It 
TTITLE11=Devil Made Me Play It
TTITLE12=Boogie Baby
EXTD=
EXTT0=
EXTT1=
EXTT2=
EXTT3=
EXTT4=
EXTT5=
EXTT6=
EXTT7=
EXTT8=
EXTT9=
EXTT10=
EXTT11=
EXTT12=
PLAYORDER=
